<svg xmlns="http://www.w3.org/2000/svg" fill="none" viewBox="0 0 40 40"><path fill="#4285F4" d="M40 20.4c0-1.6-.1-2.8-.4-4H20.4v7.4h11.3a9.7 9.7 0 0 1-4.2 6.5v.2l6 4.6h.4c3.9-3.4 6.1-8.6 6.1-14.7Z"/><path fill="#34A853" d="M20.4 40c5.5 0 10.1-1.8 13.5-4.8l-6.4-5c-1.7 1.2-4 2-7 2-5.5 0-10-3.4-11.7-8.2h-.2l-6.3 4.8-.1.2c3.3 6.5 10.2 11 18.2 11Z"/><path fill="#FBBC05" d="M8.8 24a12 12 0 0 1 0-8v-.2l-6.4-4.9-.2.1a19.7 19.7 0 0 0 0 18l6.6-5Z"/><path fill="#EB4335" d="M20.4 7.7c3.8 0 6.4 1.7 7.9 3l5.8-5.5A20.4 20.4 0 0 0 2.2 11l6.6 5c1.6-4.8 6.2-8.3 11.6-8.3Z"/></svg>