<svg xmlns="http://www.w3.org/2000/svg" fill="none" viewBox="0 0 40 40"><g clip-path="url(#a)"><path fill="#F04E23" d="M34.1 25.5c.2-3.6-1-9.4-4-14.2 0-.1-.2 0-.2 0 .2.8.3 2.1-.9 2-2 0 0-4.5-4.5-7.5 0 0-.2 0-.1.1.3.6.5 2.5-.3 3-.5.6-1.6.4-2.6-1.2-1.7-2.8-1-5.7 0-7.5.2-.2 0-.2 0-.2-6.3 2-7.5 9.3-8.8 12-.3.5-.5.7-.8.6-1.2 0-.3-2.4 0-3.3.1 0 0-.2-.1 0-3.2 3.3-6.1 9-6.7 14.2v.8l-.1.5v.6a14.5 14.5 0 0 0 29.1.2Zm-14.6 6.7a6.7 6.7 0 1 1 .1-13.4 6.7 6.7 0 1 1 0 13.4Z"/></g><defs><clipPath id="a"><path fill="#fff" d="M0 0h40v40H0z"/></clipPath></defs></svg>