<svg xmlns="http://www.w3.org/2000/svg" fill="none" viewBox="0 0 40 40"><g fill-rule="evenodd" clip-path="url(#a)" clip-rule="evenodd"><path fill="#241F20" d="M4.7 7a19.7 19.7 0 0 0-3.4 6 19.4 19.4 0 0 0 .3 14.8 19.5 19.5 0 0 0 10.6 10.6 19.5 19.5 0 0 0 15.6 0 19.3 19.3 0 0 0 10.5-10.6 19.6 19.6 0 0 0-8.1-25C27.2 1 24 0 20.4 0h-.6a19.7 19.7 0 0 0-15 7Z"/><path fill="#FA0" d="M33.4 7.2a16 16 0 0 0-9.7-5.6A16.3 16.3 0 0 0 8.2 7a15.3 15.3 0 0 0-3.5 11.3A13.8 13.8 0 0 1 12 11c2-.9 4-1.4 6.1-1.4a15.5 15.5 0 0 1 13.1 7 7 7 0 0 1 5.6 2.6l.1-.8a15.7 15.7 0 0 0-3.4-11.2ZM4.3 26.1a13.6 13.6 0 0 0 4.5 8.2l.7.5c2.1 1.5 4.4 2.5 7 3a13.3 13.3 0 0 0 9.6-2.2c-1.4-.3-2.6-1-3.6-2l-.4-.5c-2 .2-4 .1-6-.3-2.5-.6-4.7-1.6-6.7-3-2-1.5-3.6-3.4-4.8-5.6l-.3-.7v2.6Z"/><path fill="#ED3921" d="M23 12.9c-1.8-.8-3.8-1.1-5.9-1.1A13.5 13.5 0 0 0 5 20a16 16 0 0 0 6.5 9.7 17.2 17.2 0 0 0 10.7 3c-.5-.9-.9-1.9-1-3-.3-1.2-.2-2.3 0-3.6a12.1 12.1 0 0 1 7.5-9.2l-.5-.5a15 15 0 0 0-5-3.5Z"/><path fill="#F80" d="m37.1 21.9-.5-.8c-.7 2.3-2 4.4-3.6 6.3a14.1 14.1 0 0 1-5 7.8c.9 0 1.8-.1 2.7-.4.8-.4 1.6-.8 2.4-1.5 1-1 2-2.1 2.9-3.3l.1-.2 1-2.3a9.4 9.4 0 0 0 .4-4.5c0-.4-.3-.8-.4-1.1Z"/><path fill="#F66418" d="M2.5 12.6c-.7 2-1 4-1.2 6a19.5 19.5 0 0 0 6 14.4 14 14 0 0 1-3.7-10.7A16.8 16.8 0 0 1 3.5 11c.5-1.2 1-2.4 1.8-3.5a19.4 19.4 0 0 0-2.8 5ZM38.4 13.7c-.5-1.5-1-3-1.9-4.3a17 17 0 0 0-2.9-3.6A16 16 0 0 0 30 2.9a17.8 17.8 0 0 1 6.4 8.3 16 16 0 0 1 .6 8.3c.3.4.5 1 .7 1.5.6 1.5.7 3.1.4 4.7a20 20 0 0 0 1.1-7c0-1.7-.3-3.4-.8-5Z"/><path fill="#F66418" d="M32.2 18.7a15.7 15.7 0 0 1 1.1 7l-.2 1.2c1.6-1.8 2.6-3.9 3.3-6.2-.4-.4-.8-.8-1.2-1-.8-.7-1.8-1-3-1Z"/><path fill="#ED3921" d="M29 32.5c.7-.8 1.2-1.8 1.6-2.8a18.1 18.1 0 0 1-7 3c.4.6.9 1.1 1.4 1.5.5.3 1.1.6 1.8.8.8-.7 1.6-1.6 2.2-2.5ZM18.5 38.2h2.2A19.3 19.3 0 0 0 31 35c-.8.4-1.8.7-2.8.8h-1a15 15 0 0 1-8.7 2.5Z"/><path fill="#FFEC00" d="M31 23c-.3-1.4-.8-2.7-1.5-3.9a9 9 0 0 0-3.2 1.9c-1.1.9-2 2-2.7 3.2a11 11 0 0 0-1 3.7 8 8 0 0 0 .3 3.4l.5 1c1.3-.2 2.5-.5 3.7-1a14 14 0 0 0 3.5-2l.1-.1.5-2.4c.1-1.3 0-2.5-.2-3.8Z"/></g><defs><clipPath id="a"><path fill="#fff" d="M0 0h40v40H0z"/></clipPath></defs></svg>