<svg xmlns="http://www.w3.org/2000/svg" fill="none" viewBox="0 0 40 40"><g clip-path="url(#a)"><path fill="#00A1E0" d="M16.6 9A7 7 0 0 1 28 10.3a8.7 8.7 0 0 1 12.1 8 8.7 8.7 0 0 1-10.3 8.7 6.3 6.3 0 0 1-8.3 2.6 7.2 7.2 0 0 1-6.6 4.5c-3.1 0-5.7-2-6.8-4.8l-1.3.1c-3.7 0-6.7-3-6.7-6.8 0-2.5 1.3-4.7 3.3-5.9a7.9 7.9 0 0 1 7.2-11C13 5.8 15.2 7 16.6 9Z"/><path fill="#fff" d="M5.8 20.5v.1l.2.2c.4.2.8.2 1.2.2.9 0 1.4-.4 1.4-1.1 0-.7-.6-1-1.1-1l-.1-.1c-.4-.2-.8-.3-.8-.5 0-.3.2-.5.5-.5.4 0 .8.2 1 .3h.2a63.7 63.7 0 0 0 .1-.6c-.3-.1-.7-.3-1.2-.3-.8 0-1.3.5-1.3 1.1 0 .7.6 1 1.1 1.1h.1c.4.2.7.3.7.6 0 .2-.2.4-.5.4a2 2 0 0 1-1.1-.3h-.1S6 20 6 20l-.2.4ZM17.8 20.5v.1l.3.2c.4.2.7.2 1.1.2.9 0 1.4-.4 1.4-1.1 0-.7-.6-1-1.1-1l-.1-.1c-.4-.2-.8-.3-.8-.5 0-.3.2-.5.6-.5l1 .3h.1a64.2 64.2 0 0 0 .1-.6c-.3-.1-.7-.3-1.1-.3h-.1c-.8 0-1.3.5-1.3 1.1 0 .7.6 1 1.1 1.1h.1c.4.2.7.3.7.6 0 .2-.2.4-.5.4a2 2 0 0 1-1-.3H18s-.1-.1-.1 0l-.2.4ZM26 19.1c0 .4 0 .8-.2 1-.2.2-.4.3-.7.3-.3 0-.5-.1-.6-.3-.2-.2-.3-.6-.3-1s.1-.7.3-.9c.1-.2.3-.3.6-.3s.5 0 .7.3l.2 1Zm.7-.7-.3-.6-.5-.4-.8-.2c-.3 0-.5 0-.7.2a1.5 1.5 0 0 0-.9 1 2.7 2.7 0 0 0 0 1.5l.4.6.5.4.7.1.8-.1.5-.4.3-.6a2.6 2.6 0 0 0 0-1.5ZM32.3 20.3a1.6 1.6 0 0 1-.8 0 1 1 0 0 1-.7-.2c-.2-.2-.3-.5-.3-1 0-.4 0-.7.2-.9.2-.2.4-.3.8-.3h.7s0 .1 0 0l.3-.4v-.1a2.6 2.6 0 0 0-1.8 0 1.6 1.6 0 0 0-1 1v.7c0 .6.1 1 .4 1.4.3.4.8.5 1.4.5l1-.1v-.1l-.2-.5ZM33.5 18.7l.2-.5c.1-.2.4-.3.7-.3.3 0 .5 0 .6.3l.2.5h-1.7Zm2.3-.4a1.5 1.5 0 0 0-.7-1h-1.4l-.6.5-.3.6a2.7 2.7 0 0 0 0 1.5l.3.6.6.4.9.1c.6 0 1-.1 1.1-.2v-.1l-.1-.4c0-.1 0 0 0 0h-1c-.4 0-.7 0-.8-.2-.2-.2-.3-.4-.3-.8h2.3s.2-.5 0-1ZM15 18.7l.1-.5c.2-.2.4-.3.7-.3.3 0 .5 0 .6.3l.2.5h-1.7Zm2.3-.4a1.5 1.5 0 0 0-.8-1h-1.4l-.5.5-.4.6a2.7 2.7 0 0 0 0 1.5l.4.6c.1.2.3.3.6.4l.8.1c.7 0 1-.1 1.2-.2v-.1l-.2-.4c0-.1 0 0 0 0h-1c-.4 0-.6 0-.8-.2-.2-.2-.3-.4-.3-.8h2.4v-1ZM10 20.3c-.2 0-.2-.1-.2-.2v-.3l.1-.4s.2-.2.7-.2h.6v1.1l-.6.1-.7-.1Zm.9-1.7h-.4l-.6.1-.5.2-.3.4-.1.6v.5l.4.4.5.2H11.2a14.5 14.5 0 0 0 .7-.2v-2.2c0-.5 0-.8-.3-1-.2-.3-.6-.4-1-.4h-.7l-.7.4.2.5 1-.2.6.1c.2.1.2.3.2.6H11ZM29.6 17.4l-.5-.1a1.1 1.1 0 0 0-1 .4v-.3h-.6v3.5h.6V19l.1-.6.2-.3.3-.2a1.1 1.1 0 0 1 .6 0l.3-.6Z"/><path fill="#fff" d="M23.8 15.8a2 2 0 0 0-.5 0c-.4 0-.8 0-1 .3a2 2 0 0 0-.5 1v.2h-.5l-.2.6h.6l-.5 3-.1.6-.2.3-.2.2a.9.9 0 0 1-.5 0h-.1a93.6 93.6 0 0 0-.2.5l.2.1H21l.4-.4c.2-.1.2-.3.3-.5l.2-.8.6-3H23.3v-.5h-.7v-.6l.3-.3.1-.1h.3a1 1 0 0 1 .3 0h.1l.2-.5ZM13.5 20.9h-.7v-5.1h.6v5Z"/></g><defs><clipPath id="a"><path fill="#fff" d="M0 0h40v40H0z"/></clipPath></defs></svg>