<svg xmlns="http://www.w3.org/2000/svg" fill="none" viewBox="0 0 40 40"><g clip-path="url(#a)"><path fill="#95BF46" d="M33.2 7.8c0-.2-.2-.3-.4-.3l-3.2-.3L27.2 5c-.2-.3-.6-.2-.8-.1l-1.2.3c-.7-2-2-4-4.2-4l-.2.1c-.6-.8-1.4-1.2-2-1.2-5.2 0-7.6 6.4-8.4 9.7l-3.6 1.1c-1.1.4-1.1.4-1.3 1.5 0 .8-3 23.4-3 23.4L25.2 40l12.3-2.7-4.3-29.5Zm-9.3-2.3-1.9.6v-.4c0-1.3-.2-2.3-.4-3.1 1 .1 1.8 1.4 2.3 3Zm-3.8-2.7c.4.8.6 2 .6 3.5v.2l-4 1.3c.8-3 2.2-4.4 3.4-5Zm-1.5-1.4c.2 0 .5 0 .7.2-1.7.8-3.4 2.7-4.2 6.7l-3.1 1c.9-3 3-8 6.6-8Z"/><path fill="#5E8E3E" d="m32.8 7.5-3.2-.3L27.2 5l-.3-.2L25.2 40l12.3-2.7-4.3-29.5c0-.2-.2-.3-.4-.3Z"/><path fill="#fff" d="m21 14.3-1.5 4.5s-1.3-.7-3-.7c-2.3 0-2.5 1.5-2.5 1.9 0 2 5.4 2.9 5.4 7.7 0 3.8-2.4 6.3-5.6 6.3-4 0-6-2.4-6-2.4L9 28s2 1.8 3.8 1.8c1.1 0 1.6-1 1.6-1.6 0-2.7-4.4-2.8-4.4-7.3 0-3.7 2.6-7.3 8-7.3 2.1 0 3.1.6 3.1.6Z"/></g><defs><clipPath id="a"><path fill="#fff" d="M0 0h40v40H0z"/></clipPath></defs></svg>