<svg xmlns="http://www.w3.org/2000/svg" fill="none" viewBox="0 0 40 40"><g clip-path="url(#a)"><path fill="#464342" d="M2.8 20c0 6.8 4 12.7 9.7 15.4L4.3 13a17 17 0 0 0-1.5 7Zm28.8-.9a9 9 0 0 0-1.4-4.7c-.9-1.4-1.7-2.6-1.7-4 0-1.6 1.2-3 2.9-3h.2a17 17 0 0 0-26 3.2h1.2l4.5-.2c1 0 1 1.3.2 1.4l-2 .2 6.2 18.5 3.8-11.2-2.7-7.3-1.8-.2c-1 0-.8-1.5.1-1.4l4.5.2 4.6-.2c1 0 1 1.3.1 1.4l-2 .2 6.3 18.4 1.7-5.7c.7-2.4 1.3-4.1 1.3-5.6Zm-11.3 2.4-5.1 15a17.2 17.2 0 0 0 10.5-.3l-.1-.2-5.3-14.5Zm14.8-9.7v1.7c0 1.8-.3 3.7-1.2 6.2l-5.3 15.1a17.2 17.2 0 0 0 6.5-23ZM20 0a20 20 0 1 0 0 40 20 20 0 0 0 0-40Zm0 39A19.1 19.1 0 1 1 20 1 19.1 19.1 0 0 1 20 39Z"/></g><defs><clipPath id="a"><path fill="#fff" d="M0 0h40v40H0z"/></clipPath></defs></svg>