<svg xmlns="http://www.w3.org/2000/svg" fill="none" viewBox="0 0 40 40"><g clip-path="url(#a)"><path fill="#FF4A00" d="M20 0c1.1 0 2.3.1 3.3.3V12l8.3-8.3a20 20 0 0 1 4.7 4.7L28 16.7h11.7a20 20 0 0 1 0 6.7H28l8.3 8.2a20 20 0 0 1-4.7 4.7L23.3 28v11.7a20.3 20.3 0 0 1-6.7 0V28l-8.2 8.3a20 20 0 0 1-4.7-4.7l8.3-8.3H.3A16 16 0 0 1 0 19l.2-2.2H12L3.7 8.4a20 20 0 0 1 4.7-4.7l8.3 8.3V.3c1-.2 2.2-.3 3.3-.3Zm0 15c-1.5 0-3 .3-4.2.8a12 12 0 0 0 0 8.5c1.3.4 2.7.7 4.2.7s3-.3 4.2-.8a12 12 0 0 0 0-8.5A12 12 0 0 0 20 15Z"/></g><defs><clipPath id="a"><path fill="#fff" d="M0 0h40v40H0z"/></clipPath></defs></svg>