<svg xmlns="http://www.w3.org/2000/svg" fill="none" viewBox="0 0 32 32"><path fill="currentColor" d="M32 14.7c0-1.3-.7-2.4-1.8-3V3c0-.5-.4-1.8-1.8-1.8-.4 0-.7.2-1 .4l-4.8 3.8c-2.4 2-5.3 3-8.4 3H3.6C1.6 8.5 0 10 0 12v5.4c0 2 1.6 3.6 3.6 3.6h1.8a13.6 13.6 0 0 0 1.3 8c.3.5 1 .9 1.6.9h4.1c1.5 0 2.3-1.7 1.5-2.8a7.1 7.1 0 0 1-1.2-6.1h1.5c3 0 6 1 8.4 3l4.7 3.7c.3.3.7.4 1.1.4 1.4 0 1.8-1.3 1.8-1.8v-8.5c1-.6 1.8-1.8 1.8-3Zm-5.3 8L24.8 21a17 17 0 0 0-10.6-3.7V12a17 17 0 0 0 10.6-3.7l1.9-1.5v15.8Z"/></svg>