<svg xmlns="http://www.w3.org/2000/svg" fill="none" viewBox="0 0 32 32"><g fill="currentColor" clip-path="url(#a)"><path d="M3.2 15a3.2 3.2 0 1 0 0 6.4 3.2 3.2 0 0 0 0-6.4Zm4.4 4H10v-1.6H7.6V19Zm14.7-5.4 1 1.3 2.4-1.8-1-1.3-2.4 1.8Zm6.5-7.4a3.2 3.2 0 1 0 0 6.4 3.2 3.2 0 0 0 0-6.4Z"/><path d="M28.8 22.2c-.7 0-1.4.2-2 .6L22.2 20a5.5 5.5 0 0 0-3.2-7 5.6 5.6 0 0 0-3.3-.3l-2-4.3a3.2 3.2 0 1 0-2.4 1h.2l2 4.4a5.6 5.6 0 0 0 1.3 9.6A5.6 5.6 0 0 0 21 22l4.8 2.9a3.2 3.2 0 1 0 3.1-2.7Zm-12-1.6a2.4 2.4 0 1 1 0-4.8 2.4 2.4 0 0 1 0 4.8Z"/></g><defs><clipPath id="a"><path fill="#fff" d="M0 0h32v32H0z"/></clipPath></defs></svg>