<svg xmlns="http://www.w3.org/2000/svg" fill="none" viewBox="0 0 32 32"><path fill="currentColor" d="M22 10.5C21.1 4.9 19 1 16.5 1s-4.6 4-5.5 9.5h11Zm-11.5 6c0 1.4 0 2.7.2 4h11.6a39.2 39.2 0 0 0 0-8H10.7l-.2 4Zm20.3-6a15.5 15.5 0 0 0-9.9-8.8 21 21 0 0 1 3.1 8.8h6.8ZM12 1.7C7.6 3 4 6.3 2.2 10.5H9a21 21 0 0 1 3-8.8Zm19.4 10.8h-7.2a40.3 40.3 0 0 1 0 8h7.2a15.4 15.4 0 0 0 0-8Zm-23 4c0-1.3 0-2.7.2-4H1.5a15.6 15.6 0 0 0 0 8h7.2l-.2-4Zm2.5 6c.9 5.6 3 9.5 5.5 9.5s4.6-4 5.5-9.5H11Zm10 8.9c4.4-1.4 8-4.7 9.8-8.9H24a21 21 0 0 1-3 8.9ZM2.1 22.5c1.8 4.2 5.4 7.5 9.9 8.9A21 21 0 0 1 9 22.5H2.2Z"/></svg>