<svg fill="none" xmlns="http://www.w3.org/2000/svg" viewBox="0 0 1102 1160"><path opacity=".1" d="m406.4 731-.2-.4L198 146l1.8-1 208.2 584 446.5 272.3-.8 2.3L406.4 731Z" fill="url(#a)"/><path opacity=".2" d="m418.6 715-.1-.5L210 130.1l1.8-1.1 208.2 584 446.6 272.3-.9 2.4L418.6 715Z" fill="url(#b)"/><path opacity=".3" d="m431 699-.2-.5L222.4 114l1.8-1 208.2 584L879 969.3l-.8 2.3L430.9 699Z" fill="url(#c)"/><path opacity=".4" d="m443.2 682.9-.2-.5L234.6 98l1.9-1.1 208.2 584 446.5 272.3-.9 2.4-447.1-272.7Z" fill="url(#d)"/><path opacity=".5" d="m455.4 666.8-.1-.4L246.9 82l1.8-1.2 208.2 584 446.6 272.4-.9 2.4-447.2-272.8Z" fill="url(#e)"/><path opacity=".6" d="m467.7 650.8-.1-.4L259.2 65.9l1.8-1.1 208.2 584 446.5 272.3-.8 2.4-447.2-272.7Z" fill="url(#f)"/><path opacity=".7" d="m480 634.7-.2-.4L271.5 49.9l1.8-1.1 208.2 584L928 905l-.8 2.4L480 634.7Z" fill="url(#g)"/><path opacity=".8" d="m492.2 618.7-.1-.4L283.7 33.8l1.8-1 208.2 584L940.3 889l-.9 2.3-447.2-272.7Z" fill="url(#h)"/><path opacity=".9" d="m504.5 602.6-.1-.4L296 17.8l1.8-1.1 208.2 584L952.5 873l-.8 2.4-447.2-272.8Z" fill="url(#i)"/><path d="m516.8 586.6-.2-.4L308.3 1.7l1.8-1 208.2 584L964.8 857l-.8 2.3-447.2-272.7Z" fill="url(#j)"/><defs><linearGradient id="a" x1="138.8" y1="223.3" x2="966.5" y2="856.1" gradientUnits="userSpaceOnUse"><stop stop-color="#78EDF2"/><stop offset=".5" stop-color="#19C1CE" stop-opacity=".4"/><stop offset="1" stop-color="#78EDF2" stop-opacity="0"/></linearGradient><linearGradient id="b" x1="151.1" y1="207.3" x2="978.7" y2="840" gradientUnits="userSpaceOnUse"><stop stop-color="#78EDF2"/><stop offset=".5" stop-color="#19C1CE" stop-opacity=".4"/><stop offset="1" stop-color="#78EDF2" stop-opacity="0"/></linearGradient><linearGradient id="c" x1="163.4" y1="191.2" x2="991" y2="824" gradientUnits="userSpaceOnUse"><stop stop-color="#78EDF2"/><stop offset=".5" stop-color="#19C1CE" stop-opacity=".4"/><stop offset="1" stop-color="#78EDF2" stop-opacity="0"/></linearGradient><linearGradient id="d" x1="175.6" y1="175.2" x2="1003.3" y2="807.9" gradientUnits="userSpaceOnUse"><stop stop-color="#78EDF2"/><stop offset=".5" stop-color="#19C1CE" stop-opacity=".4"/><stop offset="1" stop-color="#78EDF2" stop-opacity="0"/></linearGradient><linearGradient id="e" x1="187.9" y1="159.1" x2="1015.5" y2="791.9" gradientUnits="userSpaceOnUse"><stop stop-color="#78EDF2"/><stop offset=".5" stop-color="#19C1CE" stop-opacity=".4"/><stop offset="1" stop-color="#78EDF2" stop-opacity="0"/></linearGradient><linearGradient id="f" x1="200.2" y1="143.1" x2="1027.8" y2="775.8" gradientUnits="userSpaceOnUse"><stop stop-color="#78EDF2"/><stop offset=".5" stop-color="#19C1CE" stop-opacity=".4"/><stop offset="1" stop-color="#78EDF2" stop-opacity="0"/></linearGradient><linearGradient id="g" x1="212.5" y1="127" x2="1040.1" y2="759.8" gradientUnits="userSpaceOnUse"><stop stop-color="#78EDF2"/><stop offset=".5" stop-color="#19C1CE" stop-opacity=".4"/><stop offset="1" stop-color="#78EDF2" stop-opacity="0"/></linearGradient><linearGradient id="h" x1="224.7" y1="111" x2="1052.3" y2="743.8" gradientUnits="userSpaceOnUse"><stop stop-color="#78EDF2"/><stop offset=".5" stop-color="#19C1CE" stop-opacity=".4"/><stop offset="1" stop-color="#78EDF2" stop-opacity="0"/></linearGradient><linearGradient id="i" x1="237" y1="94.9" x2="1064.6" y2="727.7" gradientUnits="userSpaceOnUse"><stop stop-color="#78EDF2"/><stop offset=".5" stop-color="#19C1CE" stop-opacity=".4"/><stop offset="1" stop-color="#78EDF2" stop-opacity="0"/></linearGradient><linearGradient id="j" x1="249.3" y1="78.9" x2="1076.9" y2="711.7" gradientUnits="userSpaceOnUse"><stop stop-color="#78EDF2"/><stop offset=".5" stop-color="#19C1CE" stop-opacity=".4"/><stop offset="1" stop-color="#78EDF2" stop-opacity="0"/></linearGradient></defs></svg>