<svg xmlns="http://www.w3.org/2000/svg" fill="none" viewBox="0 0 1440 1160"><path fill="url(#a)" d="m1031.43 429 .16.42 208.36 584.45-1.8 1.1-208.23-584-446.51-272.34.84-2.36L1031.43 429Z" opacity=".1"/><path fill="url(#b)" d="m1019.16 445.04.16.43 208.37 584.43-1.81 1.11-208.23-584-446.51-272.33.85-2.37 447.17 272.73Z" opacity=".2"/><path fill="url(#c)" d="m1006.89 461.09.16.42 208.37 584.44-1.81 1.11-208.22-584.01-446.52-272.33.85-2.37 447.17 272.74Z" opacity=".3"/><path fill="url(#d)" d="m994.63 477.12.15.44L1203.15 1062l-1.81 1.11-208.21-584.02L546.6 206.77l.85-2.37 447.18 272.72Z" opacity=".4"/><path fill="url(#e)" d="m982.36 493.17.15.43 208.37 584.44-1.81 1.11-208.21-584.01-446.53-272.33.85-2.36 447.18 272.72Z" opacity=".5"/><path fill="url(#f)" d="m970.1 509.22.14.43 208.37 584.44-1.81 1.11-208.21-584.02-446.52-272.32.84-2.37L970.1 509.22Z" opacity=".6"/><path fill="url(#g)" d="m957.83 525.26.14.44 208.38 584.43-1.81 1.11-208.22-584L509.8 254.9l.84-2.37 447.19 272.72Z" opacity=".7"/><path fill="url(#h)" d="m945.56 541.3.15.43 208.37 584.44-1.81 1.11-208.22-584-446.51-272.34.84-2.37 447.18 272.74Z" opacity=".8"/><path fill="url(#i)" d="m933.29 557.35.16.43 208.37 584.44-1.81 1.11-208.23-584-446.51-272.34.85-2.37 447.17 272.73Z" opacity=".9"/><path fill="url(#j)" d="m921.02 573.4.16.42 208.37 584.44-1.81 1.11-208.22-584.01L473 303.03l.85-2.36L921.02 573.4Z"/><path fill="url(#k)" d="m406.37 731-.16-.42-208.36-584.45 1.8-1.1 208.23 584 446.51 272.34-.84 2.36L406.37 731Z" opacity=".1"/><path fill="url(#l)" d="m418.64 714.96-.16-.43L210.11 130.1l1.81-1.11 208.22 584 446.52 272.33-.85 2.37-447.17-272.73Z" opacity=".2"/><path fill="url(#m)" d="m430.9 698.91-.15-.42-208.37-584.44 1.81-1.11 208.22 584.01 446.52 272.33-.85 2.37L430.91 698.9Z" opacity=".3"/><path fill="url(#n)" d="m443.17 682.88-.15-.44L234.65 98l1.8-1.1 208.22 584L891.2 953.24l-.85 2.37-447.18-272.72Z" opacity=".4"/><path fill="url(#o)" d="m455.44 666.83-.15-.44L246.92 81.97l1.8-1.11 208.22 584.01 446.53 272.33-.85 2.36-447.18-272.72Z" opacity=".5"/><path fill="url(#p)" d="m467.7 650.78-.14-.43L259.19 65.91l1.8-1.1 208.22 584 446.53 272.33-.85 2.37L467.7 650.78Z" opacity=".6"/><path fill="url(#q)" d="m479.97 634.74-.15-.44L271.45 49.87l1.81-1.11 208.22 584L928 905.1l-.85 2.37-447.18-272.72Z" opacity=".7"/><path fill="url(#r)" d="m492.24 618.7-.15-.43L283.72 33.83l1.8-1.1 208.23 584 446.51 272.33-.84 2.37-447.18-272.74Z" opacity=".8"/><path fill="url(#s)" d="m504.5 602.65-.15-.43L295.98 17.78l1.81-1.1 208.23 584L952.53 873l-.85 2.37-447.17-272.73Z" opacity=".9"/><path fill="url(#t)" d="m516.78 586.6-.16-.42L308.25 1.74l1.81-1.11 208.22 584.01L964.8 856.97l-.85 2.36L516.78 586.6Z"/><defs><linearGradient id="a" x1="1298.95" x2="471.35" y1="936.7" y2="303.93" gradientUnits="userSpaceOnUse"><stop stop-color="#78EDF2"/><stop offset=".5" stop-color="#19C1CE" stop-opacity=".4"/><stop offset="1" stop-color="#78EDF2" stop-opacity="0"/></linearGradient><linearGradient id="b" x1="1286.68" x2="459.08" y1="952.74" y2="319.98" gradientUnits="userSpaceOnUse"><stop stop-color="#78EDF2"/><stop offset=".5" stop-color="#19C1CE" stop-opacity=".4"/><stop offset="1" stop-color="#78EDF2" stop-opacity="0"/></linearGradient><linearGradient id="c" x1="1274.41" x2="446.81" y1="968.79" y2="336.02" gradientUnits="userSpaceOnUse"><stop stop-color="#78EDF2"/><stop offset=".5" stop-color="#19C1CE" stop-opacity=".4"/><stop offset="1" stop-color="#78EDF2" stop-opacity="0"/></linearGradient><linearGradient id="d" x1="1262.15" x2="434.55" y1="984.83" y2="352.06" gradientUnits="userSpaceOnUse"><stop stop-color="#78EDF2"/><stop offset=".5" stop-color="#19C1CE" stop-opacity=".4"/><stop offset="1" stop-color="#78EDF2" stop-opacity="0"/></linearGradient><linearGradient id="e" x1="1249.88" x2="422.28" y1="1000.88" y2="368.11" gradientUnits="userSpaceOnUse"><stop stop-color="#78EDF2"/><stop offset=".5" stop-color="#19C1CE" stop-opacity=".4"/><stop offset="1" stop-color="#78EDF2" stop-opacity="0"/></linearGradient><linearGradient id="f" x1="1237.61" x2="410.01" y1="1016.92" y2="384.15" gradientUnits="userSpaceOnUse"><stop stop-color="#78EDF2"/><stop offset=".5" stop-color="#19C1CE" stop-opacity=".4"/><stop offset="1" stop-color="#78EDF2" stop-opacity="0"/></linearGradient><linearGradient id="g" x1="1225.35" x2="397.74" y1="1032.97" y2="400.2" gradientUnits="userSpaceOnUse"><stop stop-color="#78EDF2"/><stop offset=".5" stop-color="#19C1CE" stop-opacity=".4"/><stop offset="1" stop-color="#78EDF2" stop-opacity="0"/></linearGradient><linearGradient id="h" x1="1213.08" x2="385.48" y1="1049.01" y2="416.24" gradientUnits="userSpaceOnUse"><stop stop-color="#78EDF2"/><stop offset=".5" stop-color="#19C1CE" stop-opacity=".4"/><stop offset="1" stop-color="#78EDF2" stop-opacity="0"/></linearGradient><linearGradient id="i" x1="1200.81" x2="373.21" y1="1065.05" y2="432.29" gradientUnits="userSpaceOnUse"><stop stop-color="#78EDF2"/><stop offset=".5" stop-color="#19C1CE" stop-opacity=".4"/><stop offset="1" stop-color="#78EDF2" stop-opacity="0"/></linearGradient><linearGradient id="j" x1="1188.54" x2="360.94" y1="1081.1" y2="448.33" gradientUnits="userSpaceOnUse"><stop stop-color="#78EDF2"/><stop offset=".5" stop-color="#19C1CE" stop-opacity=".4"/><stop offset="1" stop-color="#78EDF2" stop-opacity="0"/></linearGradient><linearGradient id="k" x1="138.85" x2="966.45" y1="223.3" y2="856.07" gradientUnits="userSpaceOnUse"><stop stop-color="#78EDF2"/><stop offset=".5" stop-color="#19C1CE" stop-opacity=".4"/><stop offset="1" stop-color="#78EDF2" stop-opacity="0"/></linearGradient><linearGradient id="l" x1="151.12" x2="978.72" y1="207.26" y2="840.02" gradientUnits="userSpaceOnUse"><stop stop-color="#78EDF2"/><stop offset=".5" stop-color="#19C1CE" stop-opacity=".4"/><stop offset="1" stop-color="#78EDF2" stop-opacity="0"/></linearGradient><linearGradient id="m" x1="163.38" x2="990.99" y1="191.21" y2="823.98" gradientUnits="userSpaceOnUse"><stop stop-color="#78EDF2"/><stop offset=".5" stop-color="#19C1CE" stop-opacity=".4"/><stop offset="1" stop-color="#78EDF2" stop-opacity="0"/></linearGradient><linearGradient id="n" x1="175.65" x2="1003.25" y1="175.17" y2="807.94" gradientUnits="userSpaceOnUse"><stop stop-color="#78EDF2"/><stop offset=".5" stop-color="#19C1CE" stop-opacity=".4"/><stop offset="1" stop-color="#78EDF2" stop-opacity="0"/></linearGradient><linearGradient id="o" x1="187.92" x2="1015.52" y1="159.12" y2="791.89" gradientUnits="userSpaceOnUse"><stop stop-color="#78EDF2"/><stop offset=".5" stop-color="#19C1CE" stop-opacity=".4"/><stop offset="1" stop-color="#78EDF2" stop-opacity="0"/></linearGradient><linearGradient id="p" x1="200.19" x2="1027.79" y1="143.08" y2="775.85" gradientUnits="userSpaceOnUse"><stop stop-color="#78EDF2"/><stop offset=".5" stop-color="#19C1CE" stop-opacity=".4"/><stop offset="1" stop-color="#78EDF2" stop-opacity="0"/></linearGradient><linearGradient id="q" x1="212.46" x2="1040.06" y1="127.03" y2="759.8" gradientUnits="userSpaceOnUse"><stop stop-color="#78EDF2"/><stop offset=".5" stop-color="#19C1CE" stop-opacity=".4"/><stop offset="1" stop-color="#78EDF2" stop-opacity="0"/></linearGradient><linearGradient id="r" x1="224.72" x2="1052.32" y1="110.99" y2="743.76" gradientUnits="userSpaceOnUse"><stop stop-color="#78EDF2"/><stop offset=".5" stop-color="#19C1CE" stop-opacity=".4"/><stop offset="1" stop-color="#78EDF2" stop-opacity="0"/></linearGradient><linearGradient id="s" x1="236.99" x2="1064.59" y1="94.95" y2="727.71" gradientUnits="userSpaceOnUse"><stop stop-color="#78EDF2"/><stop offset=".5" stop-color="#19C1CE" stop-opacity=".4"/><stop offset="1" stop-color="#78EDF2" stop-opacity="0"/></linearGradient><linearGradient id="t" x1="249.26" x2="1076.86" y1="78.9" y2="711.67" gradientUnits="userSpaceOnUse"><stop stop-color="#78EDF2"/><stop offset=".5" stop-color="#19C1CE" stop-opacity=".4"/><stop offset="1" stop-color="#78EDF2" stop-opacity="0"/></linearGradient></defs></svg>