<svg xmlns="http://www.w3.org/2000/svg" fill="none" viewBox="0 0 522 96"><path fill="#000" d="M481.4 25.5H493l20.5 33.7h.7l-.7-6V25.5h8.5v45h-11.5L490 36.8h-.8l.8 6v27.7h-8.6v-45ZM448.4 24a23.9 23.9 0 0 1 24.9 24c0 13.4-10.5 24-25 24a23.9 23.9 0 0 1-24.8-24c0-13.5 10.3-24 24.9-24Zm0 39.7c9.3 0 16-6.7 16-15.7s-6.7-15.8-16-15.8-16 6.8-16 15.8 6.7 15.7 16 15.7ZM406.7 25.5h8.5v45h-8.5v-45ZM360.2 25.5h40.6v8.2h-16v36.8h-8.6V33.7h-16v-8.2ZM328.6 25.5h20.2l12.5 45h-8.5l-3-10.9h-22.4l-3 10.9H316l12.7-45Zm19 26-4.8-17.7h-8.2l-4.8 17.6h17.8ZM276.6 25.5H317v8.2h-16v36.8h-8.5V33.7h-16v-8.2ZM243.4 57c.4 1.3 1 2.6 2 3.6 1.7 1.8 4.5 3.5 9.6 3.5 7.4 0 10.4-3 10.4-6 0-4.7-7.2-5.9-14.5-7.4-7.3-1.6-14.5-4.7-14.5-13.2 0-7 6.3-13.5 18.3-13.5 8.3 0 13.1 3.4 15.9 6.7 1.6 2 2.7 4.3 3.4 6.8h-9c-.3-1-.8-2-1.8-2.8-1.5-1.5-4.1-2.8-8.5-2.8-6.8 0-9.3 2.2-9.3 5.2 0 3.4 4 5 9.1 6 8.6 1.7 19.9 3.8 19.9 14.6 0 7.4-6.6 14.2-19.4 14.2-9.4 0-14.7-3.7-17.5-7.5a18 18 0 0 1-3.2-7.5h9.1v.1ZM218 48c0-14-11.1-24-26.6-24h-20v48h20c15.4 0 26.6-10.1 26.6-24Zm-32.4 11.8V36.1h5.4c7.4 0 12.1 4.6 12.1 11.9 0 7.3-4.6 11.8-12 11.8h-5.5ZM155.8 55a14.8 14.8 0 0 0 8.3-13.8c0-10.2-8-17.2-19.2-17.2h-25.6v48h14.2V58.2h8.7l7.7 13.8h14.3l-9.3-16.5 1-.5Zm-12.3-8.4h-10V35.8h10c3.5 0 6.1 2.3 6.1 5.4 0 3.1-2.6 5.4-6 5.4ZM47.7 69.6l47.8 17.8v-16L47.7 53.8 0 71.5v16l47.7-17.9Z"/><path fill="currentColor" d="M47.7 69.6 0 87.4 17.7 96l30-11.2 30 11.2 17.8-8.6-47.8-17.8Z"/><path fill="#000" d="M47.7 26.4 0 8.6v16l47.7 17.7 47.8-17.8v-16L47.7 26.5Z"/><path fill="currentColor" d="M47.7 26.4 95.5 8.6 77.7 0l-30 11.2L17.7 0 0 8.6l47.7 17.8Z"/></svg>